Coordinates
version=1
nRows=16
nColumns=40
inDegrees=yes

Units are S.I. units (second, meters, Newtons, ...)
Angles are in degrees.

endheader
time	pelvis_tilt	pelvis_list	pelvis_rotation	pelvis_tx	pelvis_ty	pelvis_tz	hip_flexion_r	hip_adduction_r	hip_rotation_r	knee_angle_r	knee_angle_r_beta	ankle_angle_r	subtalar_angle_r	mtp_angle_r	hip_flexion_l	hip_adduction_l	hip_rotation_l	knee_angle_l	knee_angle_l_beta	ankle_angle_l	subtalar_angle_l	mtp_angle_l	lumbar_extension	lumbar_bending	lumbar_rotation	arm_flex_r	arm_add_r	arm_rot_r	elbow_flex_r	pro_sup_r	wrist_flex_r	wrist_dev_r	arm_flex_l	arm_add_l	arm_rot_l	elbow_flex_l	pro_sup_l	wrist_flex_l	wrist_dev_l
      0.59000000	     -3.68312937	     -4.14586195	      0.20700376	      0.79609786	      0.93130825	      0.40928790	     31.40472689	     -3.67880670	     -6.47121742	     65.31751589	     65.31751589	      5.10175539	    -14.18103631	      0.39892224	     14.86677416	     -4.25396892	     -7.07652941	     21.33849743	     21.33849743	     11.87158785	    -13.49483047	     -3.40053296	     -8.80028750	      5.82551356	      2.07071341	      0.20488920	    -12.21129327	     -6.27700969	     34.81703594	     45.56657963	      0.00000000	      0.00000000	     15.88729006	    -13.07461284	     -1.16196047	     52.07194084	     45.82270694	      0.00000000	      0.00000000
      0.60214286	     -3.56231173	     -3.96836580	     -0.15799284	      0.79562482	      0.93225814	      0.40941889	     31.98476479	     -3.71240635	     -6.30448195	     63.05837295	     63.05837295	      5.24819915	    -14.02871045	      0.32037326	     13.70901129	     -4.04364273	     -7.43900295	     20.49038301	     20.49038301	     12.06053358	    -13.33209926	     -3.30897017	     -9.05260346	      5.72341686	      2.61672825	     -1.54325913	    -12.07671289	     -6.12644438	     33.15807073	     45.61877340	      0.00000000	      0.00000000	     17.10019718	    -13.04436554	     -1.47953511	     53.49637754	     45.88930316	      0.00000000	      0.00000000
      0.61428571	     -3.39618365	     -3.82263835	     -0.50944121	      0.79514034	      0.93316457	      0.40958427	     32.35071811	     -3.67124051	     -6.16637316	     60.52661277	     60.52661277	      5.24190422	    -13.91426779	      0.12975020	     12.52874650	     -3.86081328	     -7.80919726	     19.66648506	     19.66648506	     12.20516339	    -13.19328493	     -3.26700178	     -9.35096306	      5.63675987	      3.09346826	     -3.03380008	    -11.88367664	     -6.06402328	     31.10883795	     45.69799853	      0.00000000	      0.00000000	     18.06015428	    -13.08581707	     -1.88219514	     55.62755794	     45.97294085	      0.00000000	      0.00000000
      0.62642857	     -3.41776469	     -3.80365485	     -0.75556617	      0.79458788	      0.93361550	      0.40965504	     32.76390523	     -3.57271415	     -6.26148030	     57.77377467	     57.77377467	      5.24855828	    -13.62139629	      0.27244829	     11.70064091	     -3.80662035	     -8.02202067	     19.06641661	     19.06641661	     12.43316881	    -13.03428539	     -3.25929821	     -9.40098391	      5.75470662	      3.04772351	     -4.49048136	    -11.63820972	     -6.03117460	     29.83488313	     45.74225537	      0.00000000	      0.00000000	     18.92043249	    -13.42948836	     -2.22912901	     57.01213138	     46.03232144	      0.00000000	      0.00000000
      0.63857143	     -3.27112517	     -3.68064510	     -1.08797415	      0.79419054	      0.93418434	      0.40984781	     32.81897176	     -3.48670783	     -6.22392394	     54.67068337	     54.67068337	      4.70677436	    -13.47206390	     -0.86970349	     10.58424674	     -3.63408961	     -8.36143727	     18.27857661	     18.27857661	     12.41482306	    -12.97628045	     -3.69206397	     -9.70246884	      5.60822372	      2.21634727	     -3.87466651	    -11.17111204	     -6.57338009	     24.77601223	     46.05982596	      0.00000000	      0.00000000	     17.90706564	    -14.21937140	     -3.83807126	     62.60232922	     46.29409713	      0.00000000	      0.00000000
      0.65071429	     -3.22466783	     -3.67823603	     -1.34534961	      0.79376070	      0.93445309	      0.40999065	     32.87349012	     -3.33077211	     -6.38968474	     51.42802314	     51.42802314	      4.61672585	    -12.86273650	     -0.53137174	      9.70607201	     -3.59449089	     -8.61073149	     17.71165415	     17.71165415	     12.66675565	    -12.78541861	     -3.67652386	     -9.84012629	      5.70685460	      2.49338672	     -5.35606279	    -11.12052245	     -6.62373612	     23.74081512	     46.10663178	      0.00000000	      0.00000000	     18.92288624	    -14.18516833	     -4.32269125	     63.92859023	     46.36828802	      0.00000000	      0.00000000
      0.66285714	     -3.25778968	     -3.62055189	     -1.61741074	      0.79336378	      0.93436166	      0.41019227	     32.91676509	     -3.21492824	     -6.56874816	     47.99347261	     47.99347261	      4.36248536	    -12.04823134	     -0.56395652	      8.94334607	     -3.50959117	     -8.92295628	     17.19540979	     17.19540979	     12.87691690	    -12.54729337	     -3.87182342	     -9.91262658	      5.69593189	      2.47433109	     -6.44619073	    -11.01905269	     -6.94280427	     22.28963340	     46.22422469	      0.00000000	      0.00000000	     19.31513927	    -14.22829539	     -5.23696167	     66.57228972	     46.51105320	      0.00000000	      0.00000000
      0.67500000	     -3.41022606	     -3.68585858	     -1.79949517	      0.79292383	      0.93401293	      0.41049539	     32.91924720	     -3.00541372	     -7.01001083	     44.29115671	     44.29115671	      4.07910370	    -10.99672016	     -0.10337792	      8.43113071	     -3.57303027	     -9.07845795	     16.87758918	     16.87758918	     13.14448544	    -12.43859470	     -3.95511666	     -9.80488025	      5.87238757	      2.44980737	     -7.67436826	    -10.96129708	     -6.99740259	     21.69097547	     46.25090649	      0.00000000	      0.00000000	     20.09881325	    -14.55280701	     -5.59984566	     67.64375649	     46.56399771	      0.00000000	      0.00000000
      0.68714286	     -3.48689386	     -3.70900172	     -2.00108271	      0.79268184	      0.93361199	      0.41078401	     32.69351535	     -2.81343683	     -7.48525567	     40.38413640	     40.38413640	      3.77742387	     -9.64157599	      0.27309016	      7.80462323	     -3.57994436	     -9.29207136	     16.52524251	     16.52524251	     13.40484669	    -12.30467604	     -4.08735407	     -9.81529353	      6.02072556	      2.60148886	     -8.90249892	    -10.99468163	     -7.07933735	     21.07256951	     46.28194919	      0.00000000	      0.00000000	     20.77121146	    -14.56183621	     -5.95663977	     69.16541782	     46.62484462	      0.00000000	      0.00000000
      0.69928571	     -3.47425475	     -3.66438734	     -2.24429934	      0.79268566	      0.93317882	      0.41130576	     32.16632023	     -2.67748691	     -8.12036557	     36.15260781	     36.15260781	      2.59668772	     -8.01340759	     -1.59281909	      7.03451735	     -3.55116269	     -9.69482884	     16.13383832	     16.13383832	     13.56756055	    -11.95274526	     -4.70707003	     -9.97268302	      5.92854580	      2.02379006	     -9.44281333	    -10.97974682	     -8.02543532	     20.05854194	     46.53945701	      0.00000000	      0.00000000	     20.10319040	    -14.75556998	     -7.88717437	     73.43707745	     46.93748577	      0.00000000	      0.00000000
      0.71142857	     -3.64577498	     -3.71020714	     -2.42758997	      0.79269340	      0.93243557	      0.41196184	     31.75658901	     -2.35400875	     -8.72865301	     31.95404267	     31.95404267	      2.08801666	     -6.16635976	     -0.92496834	      6.55098078	     -3.61291774	     -9.84490444	     15.89359161	     15.89359161	     13.85527884	    -11.86206649	     -4.85125749	     -9.80648586	      6.02982756	      2.09377617	    -10.57103051	    -11.04663971	     -8.10401687	     19.74718399	     46.55674950	      0.00000000	      0.00000000	     20.71957610	    -14.82362409	     -8.03519431	     74.49301427	     46.97675514	      0.00000000	      0.00000000
      0.72357143	     -3.70572968	     -3.69902143	     -2.62196744	      0.79296831	      0.93170697	      0.41276157	     31.11751050	     -2.08736922	     -9.49855591	     27.79550515	     27.79550515	      1.54175790	     -3.81885934	     -0.31163320	      5.91353628	     -3.62693883	    -10.11151034	     15.64113360	     15.64113360	     14.16248416	    -11.64365526	     -5.06393963	     -9.79466146	      6.03960797	      2.26263761	    -11.71893867	    -11.09307692	     -8.23023868	     19.64788484	     46.56956387	      0.00000000	      0.00000000	     21.22698822	    -14.84291837	     -8.25266349	     75.96883479	     47.02940608	      0.00000000	      0.00000000
      0.73571429	     -3.70030656	     -3.61385128	     -2.80634923	      0.79349286	      0.93089639	      0.41364139	     30.36404512	     -1.92406819	    -10.49670338	     23.86429969	     23.86429969	      1.06002456	     -0.95181398	      0.24892771	      5.17227339	     -3.57170560	    -10.50994578	     15.35661620	     15.35661620	     14.49455580	    -11.19885298	     -5.38869368	     -9.85168291	      5.93487686	      2.30595952	    -12.88627440	    -11.11820392	     -8.50282147	     20.13108111	     46.57575718	      0.00000000	      0.00000000	     21.41524963	    -14.92247285	     -8.63859992	     78.09081790	     47.11357202	      0.00000000	      0.00000000
      0.74785714	     -3.90292458	     -3.59805019	     -2.97508353	      0.79410577	      0.92971217	      0.41483890	     29.77004309	     -1.48765447	    -11.03330026	     20.12045124	     20.12045124	      0.50547278	      0.95284904	      1.18933760	      4.71206915	     -3.59831358	    -10.65858851	     15.17858215	     15.17858215	     14.80320026	    -11.14265666	     -5.55544629	     -9.54914636	      5.91394679	      2.29319850	    -13.74373944	    -11.09360074	     -8.60265381	     20.18216042	     46.57797028	      0.00000000	      0.00000000	     21.71369549	    -15.01172874	     -8.81740378	     79.06740408	     47.15239305	      0.00000000	      0.00000000
      0.76000000	     -3.78794477	     -3.57334582	     -3.10440392	      0.79512935	      0.92884608	      0.41613004	     28.87908421	     -1.18682083	    -12.04896650	     16.97914837	     16.97914837	      0.28894609	      3.45258682	      2.32141578	      3.84078054	     -3.61739219	    -10.95438820	     14.94234808	     14.94234808	     15.16726622	    -10.82646747	     -5.77899380	     -9.68011434	      5.84601950	      2.34060320	    -14.71293956	    -11.16919877	     -8.81293431	     20.65830019	     46.57338739	      0.00000000	      0.00000000	     21.86536619	    -15.09779341	     -9.11525235	     80.61424707	     47.21669536	      0.00000000	      0.00000000
      0.77214286	     -3.79774705	     -3.59687612	     -3.21055441	      0.79623182	      0.92770441	      0.41755638	     28.19316247	     -0.79310308	    -12.76959140	     14.41602404	     14.41602404	      0.14441242	      5.24458488	      3.46136471	      3.12551328	     -3.68828557	    -11.08628605	     14.74834720	     14.74834720	     15.57626240	    -10.64800771	     -5.92987253	     -9.58106673	      5.85264875	      2.28750333	    -15.50456355	    -11.20834243	     -8.96662797	     20.99971754	     46.56844756	      0.00000000	      0.00000000	     21.95532976	    -15.11181125	     -9.28603921	     81.68400996	     47.26082991	      0.00000000	      0.00000000
